PathFileType	4	(X/Y/Z)	C:\Users\Admin\Desktop\Capture Files\05302019 Reflex Trials\StaticTrial_1-Unnamed.trc
DataRate	CameraRate	NumFrames	NumMarkers	Units	OrigDataRate	OrigDataStartFrame	OrigNumFrames
300.00	300.00	      22	0	mm	300.00	1	      1137
Frame#	Time	
		

1	0.000	579.37463	-624.32538	918.08643	896.53314	-724.28796	1114.84412	498.04257	-499.52292	874.64587				432.15668	-312.81897	455.73904	180.05287	-512.59662	611.19672	158.12613	-528.91052	409.55978	822.99036	-765.43982	1020.84283	291.03296	-499.31683	729.80164				182.89542	-589.01917	725.14307	370.91870	-425.48941	715.10596	499.88803	-364.92645	739.37738				428.59888	-327.16397	640.01660	
2	0.003	579.37213	-624.32806	918.08466	896.44781	-724.20526	1114.82715	498.03610	-499.52945	874.66309				432.15359	-312.78845	455.74725	180.04309	-512.59973	611.17877	158.10704	-528.91052	409.55734	823.02625	-765.45880	1020.82532	291.03568	-499.32248	729.77203				182.88313	-589.01965	725.12506	370.91263	-425.46686	715.11542	499.88699	-364.93909	739.37390				428.59744	-327.17062	640.02606	
3	0.007	579.39154	-624.32611	918.07800	896.46381	-724.23285	1114.85864	498.05438	-499.52365	874.65967				432.15637	-312.78986	455.75522	180.06076	-512.59839	611.17291	158.12799	-528.90869	409.54034	822.99579	-765.43695	1020.83221	290.27472	-498.73743	730.27246				182.88495	-589.00903	725.11359	370.91669	-425.47513	715.10980	499.87866	-364.93591	739.37378				428.60001	-327.15384	640.01337	
4	0.010	579.38281	-624.34528	918.08264	896.51007	-724.29218	1114.84985	498.04636	-499.55267	874.64569				432.15063	-312.79593	455.75073	180.06046	-512.60376	611.17108	158.12584	-528.88898	409.55350	823.03516	-765.45642	1020.84106	291.02798	-499.31631	729.77380				182.89540	-589.01886	725.11670	370.90280	-425.48056	715.11151	499.88202	-364.92273	739.36792				428.60828	-327.16693	640.01862	
5	0.013	579.36139	-624.33008	918.08588	896.49066	-724.25366	1114.83643	498.03894	-499.54272	874.64783				432.16678	-312.79102	455.75281	180.06252	-512.59802	611.16699	158.11047	-528.87915	409.53784	823.02960	-765.49646	1020.81567	291.07034	-499.33890	729.77545				182.89909	-589.01923	725.10419	370.93277	-425.48206	715.09796	499.88162	-364.92963	739.36963				428.60178	-327.15823	640.01843	
6	0.017	579.36853	-624.32727	918.08014	896.52917	-724.29547	1114.82483	498.04285	-499.52591	874.64734				432.15143	-312.79379	455.75510	180.07095	-512.59698	611.17639	158.12823	-528.88800	409.54474	823.03510	-765.49396	1020.83453	290.27548	-498.70627	730.27167				182.88509	-589.01428	725.12762	370.91074	-425.47217	715.10620	499.87424	-364.93442	739.36902				428.59921	-327.15292	640.01727	
7	0.020	579.36456	-624.34686	918.08496	896.53198	-724.35785	1114.84912	498.04352	-499.54065	874.64423				432.16501	-312.80048	455.75656	180.06677	-512.57867	611.16034	158.15475	-528.87903	409.52069	823.03284	-765.50372	1020.85645	291.05530	-499.32886	729.77698				182.88824	-589.01636	725.09760	370.93060	-425.49316	715.09515	499.88077	-364.92096	739.38165				428.60999	-327.16873	640.00549	
8	0.023	579.37512	-624.33893	918.09564	896.52856	-724.29468	1114.83081	498.03094	-499.52863	874.64227				432.17792	-312.78586	455.74689	180.07120	-512.59088	611.16907	158.14160	-528.87500	409.53452	823.04144	-765.49542	1020.85364	291.05942	-499.33975	729.76434				182.90591	-588.99231	725.11115	370.91251	-425.46130	715.09625	499.88953	-364.92722	739.36420				428.59653	-327.15173	640.00531	
9	0.027	579.36902	-624.32251	918.09576	896.47980	-724.26147	1114.81897	498.03812	-499.54266	874.64001				432.16321	-312.78436	455.74634	180.07124	-512.59027	611.16071	158.15335	-528.84357	409.52060	822.98596	-765.48730	1020.85699	291.04657	-499.30444	729.78064				182.90565	-588.99738	725.11389	370.92270	-425.47849	715.09845	499.89517	-364.92041	739.37128				428.61307	-327.17142	640.01337	
10	0.030	579.34851	-624.32556	918.09381	896.53229	-724.32941	1114.84546	498.03259	-499.54727	874.64441				432.14828	-312.78763	455.74686	180.06474	-512.57434	611.17285	158.16881	-528.87054	409.52438	823.00500	-765.46649	1020.87134	291.08249	-499.35147	729.76715				182.92361	-589.00262	725.10687	370.91281	-425.46964	715.09790	499.87811	-364.93887	739.37122				428.60315	-327.15747	640.00824	
11	0.033	579.35303	-624.33624	918.08789	896.75610	-724.57275	1115.01221	498.04364	-499.55289	874.64130				432.15802	-312.78748	455.76218	180.05464	-512.57196	611.15521	158.16397	-528.86078	409.52567	823.03088	-765.50714	1020.87457	291.05002	-499.30313	729.77020				182.92136	-588.98523	725.10315	370.90924	-425.46915	715.07892	499.88986	-364.94388	739.36920				428.62012	-327.15442	640.00641	
12	0.037	579.36945	-624.34204	918.08490				498.02298	-499.52600	874.64825	896.47815	-724.31195	1114.86548	432.15305	-312.78391	455.74646	180.09720	-512.56122	611.16089	158.16805	-528.84332	409.54388	823.02509	-765.52808	1020.86176	290.30573	-498.70844	730.27203				182.91411	-589.00037	725.10596	370.92084	-425.47879	715.09912	499.88257	-364.93311	739.35785				428.61276	-327.16312	640.00098	
13	0.040	579.36078	-624.33813	918.07928				498.02280	-499.54059	874.64880	896.52399	-724.37506	1114.84485	432.16095	-312.78729	455.75430	180.07489	-512.56134	611.16693	158.16968	-528.82166	409.53662	823.04144	-765.57684	1020.89117	290.31769	-498.70926	730.27985				182.91386	-588.99072	725.10669	370.92105	-425.47476	715.09607	499.88873	-364.93793	739.36322				428.61560	-327.17117	640.00830	
14	0.043	579.36011	-624.35352	918.09222				498.03711	-499.55463	874.63513	896.46643	-724.33411	1114.84290	432.17068	-312.77863	455.75778	180.08736	-512.56659	611.15594	158.19031	-528.84149	409.50507	822.99799	-765.54242	1020.88318	290.31885	-498.71536	730.26947				182.91908	-588.98914	725.10095	370.92908	-425.47601	715.09778	499.89694	-364.94543	739.36090				428.61935	-327.16400	640.00330	
15	0.047	579.33990	-624.34161	918.09991				498.02518	-499.55505	874.64124	896.49878	-724.36932	1114.83398	432.16681	-312.79370	455.74890	180.09619	-512.53528	611.15552	158.18587	-528.81677	409.52560	822.98035	-765.53101	1020.88336	291.08832	-499.33441	729.74310				182.93665	-588.98474	725.08167	370.91245	-425.47543	715.09106	499.88428	-364.94083	739.38428				428.61752	-327.16592	640.00793	
16	0.050	579.36066	-624.33435	918.09283				498.02487	-499.53384	874.64667	896.52466	-724.45367	1114.85437	432.16434	-312.77744	455.76517	180.10172	-512.53137	611.15607	158.18312	-528.80792	409.52814	823.00952	-765.58777	1020.89508	291.07562	-499.33026	729.75995				182.89940	-588.97107	725.10254	370.92615	-425.49356	715.09277	499.90265	-364.95743	739.37769				428.62387	-327.15134	640.00421	
17	0.053	579.33789	-624.36005	918.10730				498.01053	-499.54150	874.64575	896.56903	-724.41998	1114.82654	432.17175	-312.78568	455.74033	180.10277	-512.54858	611.15717	158.16896	-528.79492	409.52512	822.98041	-765.53143	1020.87244	290.32587	-498.72781	730.26038				182.92281	-588.98230	725.08093	370.92645	-425.49710	715.08911	499.90640	-364.94208	739.38104				428.62091	-327.18478	639.99866	
18	0.057	579.34247	-624.35107	918.10901				498.03583	-499.56592	874.65509	896.55243	-724.49567	1114.86707	432.15167	-312.76041	455.74103	180.08601	-512.53680	611.15277	158.18398	-528.80170	409.52237	823.00342	-765.59253	1020.84924	290.33020	-498.71198	730.25763				182.91342	-588.96606	725.10150	370.92294	-425.49454	715.08429	499.90604	-364.96725	739.36725				428.62939	-327.18088	640.02252	
19	0.060	579.35303	-624.34467	918.08289				498.02792	-499.56442	874.65277	896.62213	-724.53528	1114.86377	432.17407	-312.79398	455.74301	180.10919	-512.53290	611.14203	158.19154	-528.80023	409.51129	823.02856	-765.61627	1020.87463	291.08020	-499.31458	729.76178				182.93741	-588.98682	725.09204	370.92392	-425.48999	715.09283	499.90573	-364.96335	739.36902				428.62720	-327.17139	640.02106	
20	0.063	579.34564	-624.36041	918.10236				498.01718	-499.56467	874.65009	896.50812	-724.43939	1114.82019	432.17508	-312.78635	455.75873	180.10956	-512.52667	611.13788	158.18379	-528.76837	409.52106	823.01660	-765.60443	1020.88031	291.11002	-499.33566	729.76306				182.93008	-588.98120	725.08392	370.92984	-425.51233	715.08246	499.88864	-364.95627	739.37946				428.62613	-327.16348	640.02411	
21	0.067	579.33032	-624.37189	918.09137				498.02341	-499.56802	874.64484	896.52905	-724.50769	1114.83289	432.17322	-312.78976	455.77005	180.11432	-512.53967	611.13898	158.20625	-528.77673	409.49963	823.01385	-765.59845	1020.87146	291.10776	-499.32574	729.76105				182.93440	-588.96405	725.09015	370.93430	-425.50381	715.10388	499.89273	-364.96506	739.37317				428.63312	-327.18668	640.01709	
22	0.070	579.34210	-624.37964	918.09760				498.02841	-499.57727	874.66040	896.86621	-724.81134	1115.03455	432.17188	-312.78586	455.76016	180.11023	-512.52289	611.14081	158.22398	-528.78253	409.50031	823.01489	-765.64264	1020.82318	290.33749	-498.71448	730.27667				182.93987	-588.99591	725.10406	370.93295	-425.50980	715.08942	499.89462	-364.96317	739.36316				428.64145	-327.19681	640.02728	
